<svg xmlns="http://www.w3.org/2000/svg" xmlns:xlink="http://www.w3.org/1999/xlink" fill="none" version="1.1" width="658" height="88" viewBox="0 0 658 88"><defs><clipPath id="master_svg0_2_856"><rect x="0" y="0" width="658" height="88" rx="0"/></clipPath><filter id="master_svg1_2_64" filterUnits="objectBoundingBox" color-interpolation-filters="sRGB" x="-0.12396694214876033" y="-0.3409090909090909" width="1.2479338842975207" height="1.6818181818181819"><feFlood flood-opacity="0" result="BackgroundImageFix"/><feBlend mode="normal" in="SourceGraphic" in2="BackgroundImageFix" result="shape"/><feGaussianBlur stdDeviation="7.5" result="effect1_foregroundBlur"/></filter><linearGradient x1="199.73046902567148" y1="-3.586875855922699" x2="473.4559214115143" y2="88.5" gradientUnits="userSpaceOnUse" id="master_svg2_2_853"><stop offset="0%" stop-color="#5A7EFB" stop-opacity="1"/><stop offset="100%" stop-color="#3D59B9" stop-opacity="1"/></linearGradient><linearGradient x1="199.73046902567148" y1="-3.586875855922699" x2="473.4559214115143" y2="88.5" gradientUnits="userSpaceOnUse" id="master_svg3_2_721"><stop offset="0%" stop-color="#5A7EFB" stop-opacity="1"/><stop offset="100%" stop-color="#3D59B9" stop-opacity="1"/></linearGradient></defs><g clip-path="url(#master_svg0_2_856)"><g transform="matrix(1,0,-0.1402091532945633,0.9901219010353088,0.07010457664728165,0.004939049482345581)" filter="url(#master_svg1_2_64)"><path d="M238.40037890625,17.558Q244.73637890625,17.558,249.42237890625,19.769Q254.10837890625,21.98,256.61637890625,26.105Q259.12437890625,30.23,259.12437890625,35.774Q259.12437890625,41.318,256.68237890625,45.41Q254.24037890625,49.502,249.71937890625,51.713Q245.19837890625,53.924,239.06037890625,53.924L230.74437890625,53.924L230.74437890625,70.688L219.19437890625,70.688L219.19437890625,17.558L238.40037890625,17.558ZM236.68437890625,43.43Q241.63437890625,43.43,244.47237890625001,41.384Q247.31037890625,39.338,247.31037890625,35.774Q247.31037890625,32.21,244.47237890625001,30.131Q241.63437890625,28.052,236.68437890625,28.052L230.74437890625,28.052L230.74437890625,43.43L236.68437890625,43.43ZM272.39037890625,71.612Q267.17637890625,71.612,263.77737890625,68.609Q260.37837890625,65.606,260.37837890625,60.326Q260.37837890625,56.234,262.68837890625,53.132Q264.99837890624997,50.03,269.25537890625003,48.347Q273.51237890625,46.664,279.18837890625,46.664L282.75237890625,46.664L282.75237890625,45.674Q282.75237890625,42.77,281.13537890625,41.219Q279.51837890625,39.668,276.61437890625,39.668Q272.45637890625,39.668,269.09037890625,43.76L261.83037890625,38.216Q268.23237890625,30.362,278.06637890625,30.362Q282.75237890625,30.362,286.38237890625,32.242999999999995Q290.01237890625,34.124,291.99237890625,37.49Q293.97237890625,40.856,293.97237890625,45.278L293.97237890625,70.688L282.75237890625,70.688L282.75237890625,66.2L282.35637890625003,66.2Q281.16837890625,68.84,278.52837890625,70.226Q275.88837890625,71.612,272.39037890625,71.612ZM275.88837890625,62.438Q278.85837890625,62.438,280.80537890625,61.085Q282.75237890625,59.732,282.75237890625,57.356L282.75237890625,55.772L280.31037890625,55.772Q276.02037890625,55.772,273.90837890625,56.63Q271.79637890624997,57.488,271.79637890624997,59.534Q271.79637890624997,60.788,272.88537890625,61.613Q273.97437890625,62.438,275.88837890625,62.438ZM301.23237890625,70.688L301.23237890625,31.286L312.38637890625,31.286L312.38637890625,36.434L312.71637890625,36.434Q314.43237890625,33.596,317.23737890625,31.979Q320.04237890625,30.362,323.67237890625,30.362Q329.54637890624997,30.362,332.81337890625,34.157Q336.08037890625,37.952,336.08037890625,44.948L336.08037890625,70.688L324.92637890624997,70.688L324.92637890624997,47.522Q324.92637890624997,44.486,323.40837890625,42.737Q321.89037890625,40.988,319.25037890625003,40.988Q316.14837890625,40.988,314.26737890625,42.935Q312.38637890625,44.882,312.38637890625,48.248L312.38637890625,70.688L301.23237890625,70.688ZM365.64837890625,70.688L354.09837890625,70.688L354.09837890625,30.494L342.48237890625,36.5L342.48237890625,24.488L355.94637890625,17.558L365.64837890625,17.558L365.64837890625,70.688ZM393.56637890625,59.864L412.37637890625,59.864L412.37637890625,70.688L376.01037890625,70.688L376.01037890625,62.966L392.31237890625,45.542Q396.53637890625,40.988,398.02137890625,38.249Q399.50637890625,35.51,399.50637890625,32.804Q399.50637890625,30.428,397.85637890625003,28.844Q396.20637890625,27.26,393.56637890625,27.26Q390.79437890625,27.26,388.58337890625,29.24Q386.37237890625,31.22,385.38237890625,34.652L375.08637890625,30.428Q376.86837890625,24.092,381.95037890624997,20.396Q387.03237890624996,16.7,393.96237890625,16.634Q398.97837890625,16.634,402.93837890625,18.68Q406.89837890625,20.726,409.10937890624996,24.356Q411.32037890624997,27.986,411.32037890624997,32.606Q411.32037890624997,37.16,409.01037890625,41.549Q406.70037890624997,45.938,401.48637890625,51.482L393.56637890625,59.864ZM438.90837890625,37.886Q442.73637890625,37.82,446.03637890625,39.866Q449.33637890625,41.912,451.28337890625,45.575Q453.23037890625,49.238,453.23037890625,53.924Q453.23037890625,59.072,450.88737890625,63.098Q448.54437890625,67.124,444.32037890624997,69.368Q440.09637890625004,71.612,434.75037890625003,71.612Q427.88637890625,71.612,423.13437890625,68.114Q418.38237890625,64.616,416.07237890625004,58.61L426.69837890625,54.914Q428.67837890625003,61.052,434.68437890625,61.052Q437.85237890625,61.052,439.79937890625,59.105Q441.74637890625,57.158,441.74637890625,53.924Q441.74637890625,50.624,439.76637890625,48.677Q437.78637890625,46.73,434.42037890625,46.73Q433.23237890625,46.73,432.20937890625,47.093Q431.18637890625,47.456,429.80037890625,48.314L423.46437890625,40.196L435.47637890625003,28.382L418.64637890625,28.382L418.64637890625,17.558L450.78837890625,17.558L450.78837890625,27.194L438.77637890625,37.556L438.90837890625,37.886Z" fill="url(#master_svg2_2_853)" fill-opacity="0.4000000059604645"/></g><g transform="matrix(1,0,-0.1402091532945633,0.9901219010353088,0.07010457664728165,0.004939049482345581)"><path d="M238.40037890625,17.558Q244.73637890625,17.558,249.42237890625,19.769Q254.10837890625,21.98,256.61637890625,26.105Q259.12437890625,30.23,259.12437890625,35.774Q259.12437890625,41.318,256.68237890625,45.41Q254.24037890625,49.502,249.71937890625,51.713Q245.19837890625,53.924,239.06037890625,53.924L230.74437890625,53.924L230.74437890625,70.688L219.19437890625,70.688L219.19437890625,17.558L238.40037890625,17.558ZM236.68437890625,43.43Q241.63437890625,43.43,244.47237890625001,41.384Q247.31037890625,39.338,247.31037890625,35.774Q247.31037890625,32.21,244.47237890625001,30.131Q241.63437890625,28.052,236.68437890625,28.052L230.74437890625,28.052L230.74437890625,43.43L236.68437890625,43.43ZM272.39037890625,71.612Q267.17637890625,71.612,263.77737890625,68.609Q260.37837890625,65.606,260.37837890625,60.326Q260.37837890625,56.234,262.68837890625,53.132Q264.99837890624997,50.03,269.25537890625003,48.347Q273.51237890625,46.664,279.18837890625,46.664L282.75237890625,46.664L282.75237890625,45.674Q282.75237890625,42.77,281.13537890625,41.219Q279.51837890625,39.668,276.61437890625,39.668Q272.45637890625,39.668,269.09037890625,43.76L261.83037890625,38.216Q268.23237890625,30.362,278.06637890625,30.362Q282.75237890625,30.362,286.38237890625,32.242999999999995Q290.01237890625,34.124,291.99237890625,37.49Q293.97237890625,40.856,293.97237890625,45.278L293.97237890625,70.688L282.75237890625,70.688L282.75237890625,66.2L282.35637890625003,66.2Q281.16837890625,68.84,278.52837890625,70.226Q275.88837890625,71.612,272.39037890625,71.612ZM275.88837890625,62.438Q278.85837890625,62.438,280.80537890625,61.085Q282.75237890625,59.732,282.75237890625,57.356L282.75237890625,55.772L280.31037890625,55.772Q276.02037890625,55.772,273.90837890625,56.63Q271.79637890624997,57.488,271.79637890624997,59.534Q271.79637890624997,60.788,272.88537890625,61.613Q273.97437890625,62.438,275.88837890625,62.438ZM301.23237890625,70.688L301.23237890625,31.286L312.38637890625,31.286L312.38637890625,36.434L312.71637890625,36.434Q314.43237890625,33.596,317.23737890625,31.979Q320.04237890625,30.362,323.67237890625,30.362Q329.54637890624997,30.362,332.81337890625,34.157Q336.08037890625,37.952,336.08037890625,44.948L336.08037890625,70.688L324.92637890624997,70.688L324.92637890624997,47.522Q324.92637890624997,44.486,323.40837890625,42.737Q321.89037890625,40.988,319.25037890625003,40.988Q316.14837890625,40.988,314.26737890625,42.935Q312.38637890625,44.882,312.38637890625,48.248L312.38637890625,70.688L301.23237890625,70.688ZM365.64837890625,70.688L354.09837890625,70.688L354.09837890625,30.494L342.48237890625,36.5L342.48237890625,24.488L355.94637890625,17.558L365.64837890625,17.558L365.64837890625,70.688ZM393.56637890625,59.864L412.37637890625,59.864L412.37637890625,70.688L376.01037890625,70.688L376.01037890625,62.966L392.31237890625,45.542Q396.53637890625,40.988,398.02137890625,38.249Q399.50637890625,35.51,399.50637890625,32.804Q399.50637890625,30.428,397.85637890625003,28.844Q396.20637890625,27.26,393.56637890625,27.26Q390.79437890625,27.26,388.58337890625,29.24Q386.37237890625,31.22,385.38237890625,34.652L375.08637890625,30.428Q376.86837890625,24.092,381.95037890624997,20.396Q387.03237890624996,16.7,393.96237890625,16.634Q398.97837890625,16.634,402.93837890625,18.68Q406.89837890625,20.726,409.10937890624996,24.356Q411.32037890624997,27.986,411.32037890624997,32.606Q411.32037890624997,37.16,409.01037890625,41.549Q406.70037890624997,45.938,401.48637890625,51.482L393.56637890625,59.864ZM438.90837890625,37.886Q442.73637890625,37.82,446.03637890625,39.866Q449.33637890625,41.912,451.28337890625,45.575Q453.23037890625,49.238,453.23037890625,53.924Q453.23037890625,59.072,450.88737890625,63.098Q448.54437890625,67.124,444.32037890624997,69.368Q440.09637890625004,71.612,434.75037890625003,71.612Q427.88637890625,71.612,423.13437890625,68.114Q418.38237890625,64.616,416.07237890625004,58.61L426.69837890625,54.914Q428.67837890625003,61.052,434.68437890625,61.052Q437.85237890625,61.052,439.79937890625,59.105Q441.74637890625,57.158,441.74637890625,53.924Q441.74637890625,50.624,439.76637890625,48.677Q437.78637890625,46.73,434.42037890625,46.73Q433.23237890625,46.73,432.20937890625,47.093Q431.18637890625,47.456,429.80037890625,48.314L423.46437890625,40.196L435.47637890625003,28.382L418.64637890625,28.382L418.64637890625,17.558L450.78837890625,17.558L450.78837890625,27.194L438.77637890625,37.556L438.90837890625,37.886Z" fill="url(#master_svg3_2_721)" fill-opacity="1"/></g></g></svg>